<?xml version="1.0" encoding="UTF-8"?>
<svg id="Layer_2" data-name="Layer 2" xmlns="http://www.w3.org/2000/svg" viewBox="0 0 543.16 614.42">
  <g id="Layer_1-2" data-name="Layer 1">
    <g>
      <path d="M543.16,200.99v265.85c0,5.84-3.11,11.24-8.16,14.17l-225.83,131.16c-10.92,6.35-24.62-1.54-24.62-14.17v-105.51c0-5.84,3.11-11.24,8.16-14.17l131.88-76.57c5.64-3.4,7.9-9.04,7.9-14.68v-140.77c0-5.84,3.1-11.23,8.15-14.17l77.9-45.31c10.92-6.35,24.63,1.53,24.63,14.17Z"/>
      <path d="M251.81,491.39v105.75c0,12.57-13.57,20.46-24.5,14.24L8.28,486.65C3.14,483.73-.02,478.26,0,472.35L1,206.31c.05-12.57,13.64-20.41,24.54-14.15l52.35,30.03,15.46,8.83c5.11,2.92,8.26,8.35,8.26,14.23v140.68c0,5.66,3.38,11.3,9.02,14.68l132.97,76.58c5.08,2.93,8.21,8.34,8.21,14.2Z"/>
      <path d="M502.88,156.23l-78.01,45.37c-5.07,2.95-11.33,2.96-16.42.03l-132.94-76.57c-5.64-3.38-11.28-3.38-16.94,0l-131.83,76.54c-5.08,2.95-11.34,2.95-16.43.02l-68.86-39.78c-10.92-6.31-10.92-22.06,0-28.38L268.46,2.2c5.07-2.93,11.32-2.93,16.39-.01l217.98,125.68c10.91,6.29,10.94,22.03.05,28.36Z"/>
    </g>
  </g>
</svg>