<?xml version="1.0" encoding="UTF-8"?>
<svg id="Layer_1" data-name="Layer 1" xmlns="http://www.w3.org/2000/svg" viewBox="0 0 1300 900">
  <defs>
    <style>
      .cls-1 {
        fill: #fff;
      }
    </style>
  </defs>
  <rect x="-25.89" y="-13.76" width="1351.78" height="927.51"/>
  <g>
    <g>
      <path class="cls-1" d="M571.76,413.45h-63.06c-.62,0-1.13.51-1.13,1.13v11.61c0,.62.51,1.13,1.13,1.13h22.57c.62,0,1.13.51,1.13,1.13v63.86c0,.64.52,1.15,1.15,1.15h13.36c.64,0,1.15-.52,1.15-1.15v-63.85c0-.63.51-1.14,1.14-1.14h22.56c.62,0,1.13-.51,1.13-1.13v-11.61c0-.62-.51-1.13-1.13-1.13Z"/>
      <path class="cls-1" d="M593.37,494.65c-4.51,0-8.44-.75-11.8-2.25-3.36-1.5-5.95-3.66-7.77-6.46-1.82-2.81-2.73-6.07-2.73-9.79s.81-6.74,2.43-9.55c1.62-2.81,4.09-5.16,7.41-7.06,3.32-1.9,7.51-3.24,12.57-4.03l19.68-3.22c.69-.11,1.32.42,1.32,1.12v9.58c0,.55-.39,1.02-.94,1.12l-17.1,3.04c-3.08.55-5.38,1.52-6.88,2.91-1.5,1.38-2.25,3.22-2.25,5.52s.85,3.97,2.55,5.28c1.7,1.3,3.81,1.96,6.35,1.96,3.24,0,6.11-.69,8.6-2.08,2.49-1.38,4.41-3.3,5.75-5.75,1.34-2.45,2.02-5.1,2.02-7.95v-16.73c0-2.77-1.07-5.08-3.2-6.94-2.14-1.86-4.98-2.79-8.54-2.79-3.32,0-6.27.91-8.84,2.73-2.26,1.6-3.99,3.6-5.18,6-.27.55-.95.76-1.5.49l-10.7-5.2c-.54-.26-.79-.9-.56-1.44,1.27-2.99,3.14-5.61,5.6-7.86,2.73-2.49,5.95-4.45,9.67-5.87,3.72-1.42,7.75-2.14,12.1-2.14,5.3,0,9.96.97,14,2.91,4.03,1.94,7.18,4.65,9.43,8.13,2.25,3.48,3.38,7.47,3.38,11.98v41.81c0,.63-.51,1.13-1.13,1.13h-12.44c-.63,0-1.13-.51-1.13-1.13v-8.8c0-.61.48-1.11,1.09-1.13h0c.94-.03,1.52,1.04.97,1.8-1.38,1.9-2.96,3.56-4.73,5-2.33,1.9-4.94,3.32-7.83,4.27-2.89.95-6.11,1.42-9.67,1.42Z"/>
      <path class="cls-1" d="M694.44,431.78c-4.9-3-10.4-4.51-16.49-4.51-4.98,0-9.37.97-13.17,2.91-1.77.9-3.36,1.98-4.78,3.22-.73.63-1.86.1-1.86-.86v-18.04c0-.63-.51-1.13-1.13-1.13h-13.39c-.63,0-1.13.51-1.13,1.13v77.6c0,.63.51,1.13,1.13,1.13h12.44c.63,0,1.13-.51,1.13-1.13v-3.28c0-.99,1.18-1.51,1.89-.83,1.7,1.6,3.65,2.91,5.88,3.94,3.91,1.82,8.2,2.73,12.87,2.73,6.25,0,11.82-1.48,16.73-4.45,4.9-2.97,8.78-7.02,11.62-12.16,2.85-5.14,4.27-10.83,4.27-17.08s-1.44-12.02-4.33-17.08c-2.89-5.06-6.78-9.09-11.68-12.1ZM691.94,471.04c-1.58,2.93-3.74,5.22-6.47,6.88-2.73,1.66-5.87,2.49-9.43,2.49s-6.46-.83-9.19-2.49c-2.73-1.66-4.86-3.95-6.41-6.88-1.54-2.92-2.31-6.29-2.31-10.08s.77-7.04,2.31-9.96c1.54-2.92,3.68-5.22,6.41-6.88,2.73-1.66,5.79-2.49,9.19-2.49s6.7.83,9.43,2.49c2.73,1.66,4.88,3.96,6.47,6.88,1.58,2.93,2.37,6.25,2.37,9.96s-.79,7.16-2.37,10.08Z"/>
      <path class="cls-1" d="M745.32,494.65c-5.06,0-9.41-1.11-13.05-3.32-3.64-2.21-6.45-5.3-8.42-9.25-1.98-3.95-2.97-8.58-2.97-13.88v-38.37c0-.63.51-1.13,1.13-1.13h13.39c.63,0,1.13.51,1.13,1.13v37.06c0,2.69.53,5.04,1.6,7.06,1.07,2.02,2.61,3.6,4.63,4.75,2.02,1.15,4.29,1.72,6.82,1.72s4.78-.57,6.76-1.72c1.98-1.15,3.52-2.75,4.63-4.8,1.11-2.06,1.66-4.51,1.66-7.35v-36.71c0-.63.51-1.13,1.13-1.13h13.27c.63,0,1.13.51,1.13,1.13v62.26c0,.63-.51,1.13-1.13,1.13h-12.44c-.63,0-1.13-.51-1.13-1.13v-11.56l.94,1.79c.16.3.18.65.05.96-1.52,3.71-3.9,6.51-7.16,8.4-3.4,1.98-7.4,2.97-11.98,2.97Z"/>
      <rect class="cls-1" x="792.53" y="413.36" width="15.66" height="79.87" rx="1.13" ry="1.13"/>
      <path class="cls-1" d="M842.12,494.65c-4.51,0-8.44-.75-11.8-2.25-3.36-1.5-5.95-3.66-7.77-6.46-1.82-2.81-2.73-6.07-2.73-9.79s.81-6.74,2.43-9.55c1.62-2.81,4.09-5.16,7.41-7.06,3.32-1.9,7.51-3.24,12.57-4.03l19.68-3.22c.69-.11,1.32.42,1.32,1.12v9.58c0,.55-.39,1.02-.94,1.12l-17.1,3.04c-3.08.55-5.38,1.52-6.88,2.91-1.5,1.38-2.25,3.22-2.25,5.52s.85,3.97,2.55,5.28c1.7,1.3,3.81,1.96,6.35,1.96,3.24,0,6.11-.69,8.6-2.08,2.49-1.38,4.41-3.3,5.75-5.75,1.34-2.45,2.02-5.1,2.02-7.95v-16.73c0-2.77-1.07-5.08-3.2-6.94-2.14-1.86-4.98-2.79-8.54-2.79-3.32,0-6.27.91-8.84,2.73-2.26,1.6-3.99,3.6-5.18,6-.27.55-.95.76-1.5.49l-10.7-5.2c-.54-.26-.79-.9-.56-1.44,1.27-2.99,3.14-5.61,5.6-7.86,2.73-2.49,5.95-4.45,9.67-5.87,3.72-1.42,7.75-2.14,12.1-2.14,5.3,0,9.96.97,14,2.91,4.03,1.94,7.18,4.65,9.43,8.13,2.25,3.48,3.38,7.47,3.38,11.98v41.81c0,.63-.51,1.13-1.13,1.13h-12.44c-.63,0-1.13-.51-1.13-1.13v-8.8c0-.61.48-1.11,1.09-1.13h0c.94-.03,1.52,1.04.97,1.8-1.38,1.9-2.96,3.56-4.73,5-2.33,1.9-4.94,3.32-7.83,4.27-2.89.95-6.11,1.42-9.67,1.42Z"/>
      <path class="cls-1" d="M891.23,492.09v-62.26c0-.63.51-1.13,1.13-1.13h12.44c.63,0,1.13.51,1.13,1.13v13.22l-.94-1.7c-.15-.28-.19-.62-.09-.92,1.51-4.57,3.81-7.77,6.9-9.6,3.2-1.9,7.06-2.85,11.57-2.85h2.66c.63,0,1.13.51,1.13,1.13v11.61c0,.63-.51,1.13-1.13,1.13h-4.44c-4.43,0-7.99,1.35-10.68,4.03s-4.03,6.49-4.03,11.39v34.81c0,.63-.51,1.13-1.13,1.13h-13.39c-.63,0-1.13-.51-1.13-1.13Z"/>
    </g>
    <g>
      <path class="cls-1" d="M480.17,429.01v52.54c0,1.15-.61,2.22-1.61,2.8l-44.63,25.92c-2.16,1.25-4.87-.3-4.87-2.8v-20.85c0-1.15.61-2.22,1.61-2.8l26.06-15.13c1.11-.67,1.56-1.79,1.56-2.9v-27.82c0-1.15.61-2.22,1.61-2.8l15.39-8.95c2.16-1.26,4.87.3,4.87,2.8Z"/>
      <path class="cls-1" d="M422.59,486.4v20.9c0,2.48-2.68,4.04-4.84,2.81l-43.29-24.65c-1.02-.58-1.64-1.66-1.64-2.83l.2-52.58c0-2.48,2.7-4.03,4.85-2.8l10.35,5.93,3.06,1.74c1.01.58,1.63,1.65,1.63,2.81v27.8c0,1.12.67,2.23,1.78,2.9l26.28,15.13c1,.58,1.62,1.65,1.62,2.81Z"/>
      <path class="cls-1" d="M472.21,420.16l-15.42,8.97c-1,.58-2.24.59-3.24,0l-26.27-15.13c-1.11-.67-2.23-.67-3.35,0l-26.05,15.13c-1,.58-2.24.58-3.25,0l-13.61-7.86c-2.16-1.25-2.16-4.36,0-5.61l44.86-25.94c1-.58,2.24-.58,3.24,0l43.08,24.84c2.16,1.24,2.16,4.35.01,5.61Z"/>
    </g>
  </g>
</svg>